<svg xmlns="http://www.w3.org/2000/svg" fill="none" viewBox="118.72 182.44 878.53 1272">
<path d="M557.984 1454.44C471.488 1454.44 395.168 1436.07 329.024 1399.32C262.88 1362.01 211.152 1310.28 173.84 1244.14C137.093 1177.99 118.72 1101.67 118.72 1015.18V621.704C118.72 535.208 137.093 458.888 173.84 392.744C211.152 326.6 262.88 275.155 329.024 238.408C395.168 201.096 471.488 182.44 557.984 182.44C644.48 182.44 720.517 201.096 786.096 238.408C852.24 275.155 903.968 326.6 941.28 392.744C978.592 458.888 997.248 535.208 997.248 621.704V1015.18C997.248 1101.67 978.592 1177.99 941.28 1244.14C903.968 1310.28 852.24 1362.01 786.096 1399.32C720.517 1436.07 644.48 1454.44 557.984 1454.44ZM557.984 1260.25C600.949 1260.25 639.957 1250.07 675.008 1229.72C710.059 1208.8 737.76 1181.1 758.112 1146.62C778.464 1111.57 788.64 1072.56 788.64 1029.59V606.44C788.64 562.909 778.464 523.901 758.112 489.416C737.76 454.365 710.059 426.664 675.008 406.312C639.957 385.395 600.949 374.936 557.984 374.936C515.019 374.936 476.011 385.395 440.96 406.312C405.909 426.664 378.208 454.365 357.856 489.416C337.504 523.901 327.328 562.909 327.328 606.44V1029.59C327.328 1072.56 337.504 1111.57 357.856 1146.62C378.208 1181.1 405.909 1208.8 440.96 1229.72C476.011 1250.07 515.019 1260.25 557.984 1260.25Z" fill="url(#paint0_linear_302_93)"/>
<defs>
<linearGradient id="paint0_linear_302_93" x1="504" y1="174.497" x2="504" y2="1428.33" gradientUnits="userSpaceOnUse">
<stop stop-color="#FF7F00"/>
<stop offset="0.5" stop-color="#FE516D"/>
<stop offset="1" stop-color="#1B4FF4"/>
</linearGradient>
</defs>
</svg>